<mxfile host="app.diagrams.net" modified="2024-03-28T00:49:16.926Z" agent="Mozilla/5.0 (Windows NT 10.0; Win64; x64) AppleWebKit/537.36 (KHTML, like Gecko) Chrome/122.0.0.0 Safari/537.36 Edg/122.0.0.0" etag="qlrWemBccay-6wF02J2m" version="24.2.0" type="device">
  <diagram name="Page-1" id="SZgbltIpmlPyofQM79sK">
    <mxGraphModel dx="1002" dy="569" grid="1" gridSize="10" guides="1" tooltips="1" connect="1" arrows="1" fold="1" page="1" pageScale="1" pageWidth="850" pageHeight="1100" math="0" shadow="0">
      <root>
        <mxCell id="0" />
        <mxCell id="1" parent="0" />
        <mxCell id="aCKNYUgit6To33v_iiRA-1" value="Time range&amp;nbsp;&lt;div&gt;and Location&amp;nbsp;&lt;/div&gt;" style="shape=parallelogram;perimeter=parallelogramPerimeter;whiteSpace=wrap;html=1;fixedSize=1;fillColor=#d5e8d4;strokeColor=#82b366;fontStyle=1" vertex="1" parent="1">
          <mxGeometry x="160" y="200" width="120" height="80" as="geometry" />
        </mxCell>
        <mxCell id="aCKNYUgit6To33v_iiRA-3" style="edgeStyle=orthogonalEdgeStyle;rounded=0;orthogonalLoop=1;jettySize=auto;html=1;entryX=0;entryY=0.5;entryDx=0;entryDy=0;" edge="1" parent="1" source="aCKNYUgit6To33v_iiRA-2" target="aCKNYUgit6To33v_iiRA-1">
          <mxGeometry relative="1" as="geometry" />
        </mxCell>
        <mxCell id="aCKNYUgit6To33v_iiRA-2" value="Start" style="ellipse;whiteSpace=wrap;html=1;aspect=fixed;fillColor=#f8cecc;strokeColor=#b85450;fontStyle=1" vertex="1" parent="1">
          <mxGeometry x="40" y="200" width="80" height="80" as="geometry" />
        </mxCell>
        <mxCell id="aCKNYUgit6To33v_iiRA-8" style="edgeStyle=orthogonalEdgeStyle;rounded=0;orthogonalLoop=1;jettySize=auto;html=1;entryX=0.5;entryY=0;entryDx=0;entryDy=0;" edge="1" parent="1" source="aCKNYUgit6To33v_iiRA-4" target="aCKNYUgit6To33v_iiRA-6">
          <mxGeometry relative="1" as="geometry" />
        </mxCell>
        <mxCell id="aCKNYUgit6To33v_iiRA-4" value="Public Historical Data" style="shape=cylinder3;whiteSpace=wrap;html=1;boundedLbl=1;backgroundOutline=1;size=15;fillColor=#e1d5e7;strokeColor=#9673a6;fontStyle=1" vertex="1" parent="1">
          <mxGeometry x="340" y="80" width="80" height="80" as="geometry" />
        </mxCell>
        <mxCell id="aCKNYUgit6To33v_iiRA-31" style="edgeStyle=orthogonalEdgeStyle;rounded=0;orthogonalLoop=1;jettySize=auto;html=1;entryX=0.5;entryY=1;entryDx=0;entryDy=0;" edge="1" parent="1" source="aCKNYUgit6To33v_iiRA-5" target="aCKNYUgit6To33v_iiRA-6">
          <mxGeometry relative="1" as="geometry" />
        </mxCell>
        <mxCell id="aCKNYUgit6To33v_iiRA-5" value="API" style="ellipse;shape=cloud;whiteSpace=wrap;html=1;fillColor=#e1d5e7;strokeColor=#9673a6;fontStyle=1" vertex="1" parent="1">
          <mxGeometry x="340" y="320" width="80" height="80" as="geometry" />
        </mxCell>
        <mxCell id="aCKNYUgit6To33v_iiRA-20" style="edgeStyle=orthogonalEdgeStyle;rounded=0;orthogonalLoop=1;jettySize=auto;html=1;entryX=0;entryY=0.5;entryDx=0;entryDy=0;" edge="1" parent="1" source="aCKNYUgit6To33v_iiRA-6" target="aCKNYUgit6To33v_iiRA-19">
          <mxGeometry relative="1" as="geometry" />
        </mxCell>
        <mxCell id="aCKNYUgit6To33v_iiRA-6" value="Historical Weather Data" style="rounded=0;whiteSpace=wrap;html=1;fillColor=#dae8fc;strokeColor=#6c8ebf;fontStyle=1" vertex="1" parent="1">
          <mxGeometry x="320" y="200" width="120" height="80" as="geometry" />
        </mxCell>
        <mxCell id="aCKNYUgit6To33v_iiRA-9" style="edgeStyle=orthogonalEdgeStyle;rounded=0;orthogonalLoop=1;jettySize=auto;html=1;entryX=0;entryY=0.5;entryDx=0;entryDy=0;entryPerimeter=0;" edge="1" parent="1" source="aCKNYUgit6To33v_iiRA-1" target="aCKNYUgit6To33v_iiRA-4">
          <mxGeometry relative="1" as="geometry">
            <Array as="points">
              <mxPoint x="300" y="240" />
              <mxPoint x="300" y="120" />
            </Array>
          </mxGeometry>
        </mxCell>
        <mxCell id="aCKNYUgit6To33v_iiRA-10" style="edgeStyle=orthogonalEdgeStyle;rounded=0;orthogonalLoop=1;jettySize=auto;html=1;entryX=0.16;entryY=0.55;entryDx=0;entryDy=0;entryPerimeter=0;" edge="1" parent="1" source="aCKNYUgit6To33v_iiRA-1" target="aCKNYUgit6To33v_iiRA-5">
          <mxGeometry relative="1" as="geometry">
            <Array as="points">
              <mxPoint x="300" y="240" />
              <mxPoint x="300" y="364" />
            </Array>
          </mxGeometry>
        </mxCell>
        <mxCell id="aCKNYUgit6To33v_iiRA-15" style="edgeStyle=orthogonalEdgeStyle;rounded=0;orthogonalLoop=1;jettySize=auto;html=1;entryX=0;entryY=0.5;entryDx=0;entryDy=0;" edge="1" parent="1" source="aCKNYUgit6To33v_iiRA-11" target="aCKNYUgit6To33v_iiRA-14">
          <mxGeometry relative="1" as="geometry" />
        </mxCell>
        <mxCell id="aCKNYUgit6To33v_iiRA-11" value="Company Database" style="shape=cylinder3;whiteSpace=wrap;html=1;boundedLbl=1;backgroundOutline=1;size=15;fillColor=#e1d5e7;strokeColor=#9673a6;fontStyle=1" vertex="1" parent="1">
          <mxGeometry x="160" y="440" width="80" height="80" as="geometry" />
        </mxCell>
        <mxCell id="aCKNYUgit6To33v_iiRA-13" style="edgeStyle=orthogonalEdgeStyle;rounded=0;orthogonalLoop=1;jettySize=auto;html=1;entryX=0;entryY=0.5;entryDx=0;entryDy=0;entryPerimeter=0;exitX=0.5;exitY=1;exitDx=0;exitDy=0;" edge="1" parent="1" source="aCKNYUgit6To33v_iiRA-2" target="aCKNYUgit6To33v_iiRA-11">
          <mxGeometry relative="1" as="geometry">
            <mxPoint x="120" y="560" as="sourcePoint" />
          </mxGeometry>
        </mxCell>
        <mxCell id="aCKNYUgit6To33v_iiRA-24" style="edgeStyle=orthogonalEdgeStyle;rounded=0;orthogonalLoop=1;jettySize=auto;html=1;entryX=0;entryY=0.5;entryDx=0;entryDy=0;" edge="1" parent="1" source="aCKNYUgit6To33v_iiRA-14" target="aCKNYUgit6To33v_iiRA-18">
          <mxGeometry relative="1" as="geometry" />
        </mxCell>
        <mxCell id="aCKNYUgit6To33v_iiRA-14" value="Historical Weather and EOT Data" style="rounded=0;whiteSpace=wrap;html=1;fillColor=#dae8fc;strokeColor=#6c8ebf;fontStyle=1" vertex="1" parent="1">
          <mxGeometry x="320" y="440" width="120" height="80" as="geometry" />
        </mxCell>
        <mxCell id="aCKNYUgit6To33v_iiRA-28" style="edgeStyle=orthogonalEdgeStyle;rounded=0;orthogonalLoop=1;jettySize=auto;html=1;entryX=0;entryY=0.5;entryDx=0;entryDy=0;" edge="1" parent="1" source="aCKNYUgit6To33v_iiRA-18" target="aCKNYUgit6To33v_iiRA-27">
          <mxGeometry relative="1" as="geometry" />
        </mxCell>
        <mxCell id="aCKNYUgit6To33v_iiRA-18" value="EOT and Bad Weather Model" style="rounded=1;whiteSpace=wrap;html=1;fillColor=#ffe6cc;strokeColor=#d79b00;fontStyle=1" vertex="1" parent="1">
          <mxGeometry x="480" y="440" width="120" height="80" as="geometry" />
        </mxCell>
        <mxCell id="aCKNYUgit6To33v_iiRA-25" style="edgeStyle=orthogonalEdgeStyle;rounded=0;orthogonalLoop=1;jettySize=auto;html=1;entryX=0.5;entryY=0;entryDx=0;entryDy=0;" edge="1" parent="1" source="aCKNYUgit6To33v_iiRA-19" target="aCKNYUgit6To33v_iiRA-21">
          <mxGeometry relative="1" as="geometry" />
        </mxCell>
        <mxCell id="aCKNYUgit6To33v_iiRA-19" value="Weather&amp;nbsp;&lt;div&gt;Forecasting Model&lt;/div&gt;" style="rounded=1;whiteSpace=wrap;html=1;fillColor=#ffe6cc;strokeColor=#d79b00;fontStyle=1" vertex="1" parent="1">
          <mxGeometry x="480" y="200" width="120" height="80" as="geometry" />
        </mxCell>
        <mxCell id="aCKNYUgit6To33v_iiRA-26" style="edgeStyle=orthogonalEdgeStyle;rounded=0;orthogonalLoop=1;jettySize=auto;html=1;entryX=0.5;entryY=0;entryDx=0;entryDy=0;" edge="1" parent="1" source="aCKNYUgit6To33v_iiRA-21" target="aCKNYUgit6To33v_iiRA-18">
          <mxGeometry relative="1" as="geometry" />
        </mxCell>
        <mxCell id="aCKNYUgit6To33v_iiRA-21" value="Forecasted&amp;nbsp;&lt;div&gt;Weather Data&lt;/div&gt;" style="rounded=0;whiteSpace=wrap;html=1;fillColor=#dae8fc;strokeColor=#6c8ebf;fontStyle=1" vertex="1" parent="1">
          <mxGeometry x="480" y="320" width="120" height="80" as="geometry" />
        </mxCell>
        <mxCell id="aCKNYUgit6To33v_iiRA-30" style="edgeStyle=orthogonalEdgeStyle;rounded=0;orthogonalLoop=1;jettySize=auto;html=1;entryX=0.5;entryY=1;entryDx=0;entryDy=0;" edge="1" parent="1" source="aCKNYUgit6To33v_iiRA-27" target="aCKNYUgit6To33v_iiRA-29">
          <mxGeometry relative="1" as="geometry" />
        </mxCell>
        <mxCell id="aCKNYUgit6To33v_iiRA-27" value="Future EOT Prediction" style="rounded=0;whiteSpace=wrap;html=1;fillColor=#dae8fc;strokeColor=#6c8ebf;fontStyle=1" vertex="1" parent="1">
          <mxGeometry x="640" y="440" width="120" height="80" as="geometry" />
        </mxCell>
        <mxCell id="aCKNYUgit6To33v_iiRA-29" value="Start" style="ellipse;whiteSpace=wrap;html=1;aspect=fixed;fillColor=#f8cecc;strokeColor=#b85450;fontStyle=1" vertex="1" parent="1">
          <mxGeometry x="660" y="320" width="80" height="80" as="geometry" />
        </mxCell>
      </root>
    </mxGraphModel>
  </diagram>
</mxfile>
